HIERARCHY
ROOT COM
{
  OFFSET -10.5682 89.9488 26.191
  CHANNELS 6 Xposition Yposition Zposition Zrotation Xrotation Yrotation
  JOINT Spine
  {
    OFFSET 0 10.0313 -3.64775
    CHANNELS 3 Zrotation Xrotation Yrotation
    JOINT Spine1
    {
      OFFSET 0 14.268 -0.0123585
      CHANNELS 3 Zrotation Xrotation Yrotation
      JOINT Spine2
      {
        OFFSET 0 15.5534 -0.0118018
        CHANNELS 3 Zrotation Xrotation Yrotation
        JOINT Neck
        {
          OFFSET 0 15.3437 -0.00507736
          CHANNELS 3 Zrotation Xrotation Yrotation
          JOINT Head
          {
            OFFSET 0 6.5943 0
            CHANNELS 3 Zrotation Xrotation Yrotation
            End Site
            {
              OFFSET 0 0 0
            }
          }
          JOINT Leftcollar
          {
            OFFSET 4.25429 -1.5481 1.99067
            CHANNELS 3 Zrotation Xrotation Yrotation
            JOINT LeftArm
            {
              OFFSET 16.8259 0 0
              CHANNELS 3 Zrotation Xrotation Yrotation
              JOINT LeftForeArm
              {
                OFFSET 0 -28.058 0
                CHANNELS 3 Zrotation Xrotation Yrotation
                JOINT LeftHand
                {
                  OFFSET 0 -24.7253 0
                  CHANNELS 3 Zrotation Xrotation Yrotation
                  End Site
                  {
                    OFFSET -2.98615 -9.94619 -0.575321
                  }
                }
              }
            }
          }
          JOINT RightCollar
          {
            OFFSET -4.25428 -1.54809 1.99069
            CHANNELS 3 Zrotation Xrotation Yrotation
            JOINT RightArm
            {
              OFFSET -16.8259 0 0
              CHANNELS 3 Zrotation Xrotation Yrotation
              JOINT RightForeArm
              {
                OFFSET 0 -28.058 0
                CHANNELS 3 Zrotation Xrotation Yrotation
                JOINT RightHand
                {
                  OFFSET 0 -24.7253 0
                  CHANNELS 3 Zrotation Xrotation Yrotation
                  End Site
                  {
                    OFFSET 2.98615 -9.94618 -0.575319
                  }
                }
              }
            }
          }
        }
      }
    }
  }
  JOINT LeftUpLeg
  {
    OFFSET 9.94275 0 0
    CHANNELS 3 Zrotation Xrotation Yrotation
    JOINT LeftLeg
    {
      OFFSET 0 -45.973 0
      CHANNELS 3 Zrotation Xrotation Yrotation
      JOINT LeftFoot
      {
        OFFSET 0 -43.1634 0
        CHANNELS 3 Zrotation Xrotation Yrotation
        JOINT LeftToe
        {
          OFFSET 0 0 15.6286
          CHANNELS 3 Zrotation Xrotation Yrotation
          End Site
          {
            OFFSET 0 0 0
          }
        }
      }
    }
  }
  JOINT RightUpLeg
  {
    OFFSET -9.94275 0 0
    CHANNELS 3 Zrotation Xrotation Yrotation
    JOINT RightLeg
    {
      OFFSET 0 -45.973 0
      CHANNELS 3 Zrotation Xrotation Yrotation
      JOINT RightFoot
      {
        OFFSET 0 -43.1634 0
        CHANNELS 3 Zrotation Xrotation Yrotation
        JOINT RightToe
        {
          OFFSET 0 0 15.6286
          CHANNELS 3 Zrotation Xrotation Yrotation
          End Site
          {
            OFFSET 0 0 0
          }
        }
      }
    }
  }
}
MOTION
Frames:	17
Frame Time:	0.0333333
-28.8932 89.2472 -15.3353 6.1933 3.98544 -4.90759 -8.39201 -6.00083 7.9952e-016 -9.46795e-016 0 13.8217 -8.44835e-016 -3.97569e-016 4.77083e-015 -9.93923e-017 -3.97569e-016 3.18055e-015 -9.93923e-017 0 4.77083e-015 -9.93923e-017 0 4.77083e-015 18.6946 26.2469 -27.8123 -1.25929e-015 -11.7573 1.62436e-015 3.18055e-015 -1.94753e-031 90 -9.93923e-017 0 4.77083e-015 -26.4242 -15.6655 6.6905 3.76903e-015 -44.054 8.85104e-015 -3.18055e-015 -1.94753e-031 -90 -12.4717 -18.2963 45.6536 3.14247e-015 0.343076 6.36122e-015 8.22833e-008 26.8234 -25.688 -3.97569e-015 -7.95139e-016 1.59028e-015 -11.4544 16.6477 -31.4776 3.01437e-015 24.1205 -3.48482e-015 4.44602e-009 9.78711 18.8826 -3.18055e-015 -9.54166e-015 1.59028e-015 
-28.1749 89.7927 -10.9381 7.69459 3.00081 -3.34355 -10.2254 -5.9271 -0 -1.79816e-016 3.97569e-016 11.17 -1.49089e-016 -3.97569e-016 4.77083e-015 2.98177e-016 0 3.18055e-015 3.47873e-016 0 3.18055e-015 3.47873e-016 0 3.18055e-015 18.4697 24.2301 -29.9496 8.62978e-016 -12.8804 -3.26265e-015 -7.95139e-016 4.86882e-032 90 3.47873e-016 0 3.18055e-015 -23.7965 -12.8334 9.7671 4.27858e-016 -41.4935 4.24623e-015 -1.59028e-015 -9.73764e-032 -90 -14.4259 -15.0385 43.9089 1.33909e-016 2.41087 -3.18337e-015 1.73281e-007 24.1621 -25.5156 4.37326e-015 1.59028e-015 -0 -15.5379 15.6387 -29.7735 3.18055e-015 32.763 -0 1.92637e-007 17.0135 16.7424 9.54166e-015 3.18055e-015 -1.59028e-015 
-27.6634 90.3962 -7.23535 7.91299 2.18039 -3.36064 -10.46 -5.40149 3.99343e-016 2.80777e-016 3.97569e-016 10.3899 -9.93923e-017 7.95139e-016 -1.59028e-015 -7.45443e-016 0 -1.59028e-015 -3.97569e-016 0 -3.18055e-015 -3.97569e-016 0 -3.18055e-015 18.614 20.7106 -31.6608 -0 -15.3967 -0 -3.97569e-015 2.43441e-031 90 -3.97569e-016 0 -3.18055e-015 -21.9342 -10.2189 12.8948 -1.59028e-015 -38.3191 -0 -0 -0 -90 -14.5802 -12.1412 46.7053 -2.79427e-015 3.6776 6.37424e-015 -2.84261e-007 22.207 -28.4492 -3.97569e-015 1.59028e-015 -0 -17.9836 11.3814 -24.3466 4.19003e-015 43.0029 4.34906e-015 9.21225e-008 24.6738 11.2257 -1.32417e-031 -4.77083e-015 -1.59028e-015 
-27.042 90.8718 -3.96734 7.38177 1.86103 -3.04715 -9.73429 -4.98907 -0 -8.20478e-016 3.97569e-016 9.3002 4.96962e-017 0 -7.95139e-016 -5.51738e-033 -3.97569e-016 -7.95139e-016 3.97569e-016 0 -7.95139e-016 3.97569e-016 0 -7.95139e-016 18.8451 15.9378 -33.4378 -5.73899e-016 -17.7218 3.339e-015 1.68967e-015 -1.03462e-031 90 3.97569e-016 0 -7.95139e-016 -20.7735 -7.51041 16.0206 -8.60498e-015 -35.2029 -3.89242e-015 -1.59028e-015 -9.73764e-032 -90 -14.5987 -9.55779 48.08 -9.95089e-016 3.59725 3.18683e-015 -3.6633e-007 20.8598 -30.3113 -5.1684e-015 3.18055e-015 3.18055e-015 -18.9661 5.91286 -20.7383 -6.25908e-015 52.3559 1.04152e-014 -1.50668e-007 29.1364 5.73938 -9.54166e-015 1.98785e-016 1.88845e-015 
-26.4553 91.2842 -0.814826 6.48711 1.03961 -2.13189 -8.67026 -3.97499 -0 -8.5299e-016 0 7.92919 -9.93923e-017 0 7.95139e-016 -0 0 7.95139e-016 -3.97569e-016 0 -7.95139e-016 -3.97569e-016 0 -7.95139e-016 19.8496 10.9269 -34.716 -3.27944e-015 -21.3329 -6.82902e-015 -7.15625e-015 4.38194e-031 90 -3.97569e-016 0 -7.95139e-016 -19.7062 -4.52197 18.6103 -6.69192e-015 -31.7162 -1.12167e-014 -3.18055e-015 -1.94753e-031 -90 -14.3346 -6.55668 47.3062 -1.98956e-016 3.57941 3.18677e-015 -6.39608e-007 19.2745 -30.304 -3.97569e-015 -4.77083e-015 -3.18055e-015 -18.9808 1.35495 -18.1431 7.1275e-015 59.2142 -6.21408e-015 -3.51834e-008 24.1384 2.56935 0 0 -1.98785e-016 
-25.8467 91.6438 2.31645 5.10356 0.443711 -0.089557 -7.1098 -3.27855 -0 -1.66336e-016 -7.95139e-016 5.99569 9.93923e-017 0 -0 5.46658e-016 -7.95139e-016 -0 -2.98177e-016 -1.59028e-015 -7.95139e-016 -2.98177e-016 -1.59028e-015 -7.95139e-016 20.9595 5.49327 -34.1134 -0 -25.1797 -0 -0 0 90 -2.98177e-016 -1.59028e-015 -7.95139e-016 -18.7743 -0.984963 20.2676 3.88066e-015 -27.9182 -3.59947e-015 1.11319e-014 6.81635e-031 -90 -13.489 -3.77097 45.8842 -1.05502e-015 3.94164 9.56429e-015 -1.34275e-007 17.5178 -30.7123 1.98785e-015 -1.59028e-015 -3.18055e-015 -18.0554 -2.6896 -16.8467 -7.50099e-015 62.7884 1.39108e-014 -2.36216e-010 20.1086 0.674374 3.18055e-015 1.59028e-015 1.98785e-015 
-25.1559 91.874 5.12808 4.11041 0.593997 2.2874 -5.93283 -3.20487 -3.98192e-016 1.49501e-016 0 4.25554 5.46658e-016 -3.97569e-016 -7.95139e-016 5.46658e-016 -3.97569e-016 -1.59028e-015 5.46658e-016 0 -1.59028e-015 5.46658e-016 0 -1.59028e-015 22.3645 -0.122751 -33.0513 4.28534e-015 -29.6837 3.66098e-015 9.54166e-015 -5.84258e-031 90 5.46658e-016 0 -1.59028e-015 -17.9612 3.02701 20.3513 -5.41736e-015 -24.7503 -7.00454e-015 -3.18055e-015 -1.94753e-031 -90 -12.8337 -2.03423 44.5163 -2.02075e-015 4.56735 -9.57206e-015 -1.6591e-009 16.1236 -31.7739 1.59028e-015 4.77083e-015 3.18055e-015 -17.6652 -7.2286 -16.6532 6.17026e-015 63.923 -1.08532e-014 1.02428e-008 17.1738 -0.776668 -3.18055e-015 0 3.18055e-015 
-24.5536 92.0337 7.95509 2.86744 0.897975 5.10696 -4.71774 -3.38028 7.96524e-016 1.98966e-016 0 2.44828 -9.93923e-017 7.95139e-016 -1.59028e-015 -6.95746e-016 0 -0 -0 -3.97569e-016 -0 -0 -3.97569e-016 -0 23.8551 -5.16176 -30.5562 2.18663e-015 -35.068 -0 3.18055e-015 -1.94753e-031 90 -0 -3.97569e-016 -0 -17.0016 7.0162 19.6919 2.43149e-015 -21.2802 3.41328e-015 -9.54166e-015 -5.84258e-031 -90 -11.692 -0.578686 43.0761 1.2921e-015 5.45071 -0 -4.92124e-007 14.5924 -33.0776 1.59028e-015 -6.36111e-015 -0 -16.8407 -11.3151 -16.885 1.18682e-014 62.2952 -1.02617e-014 1.74212e-008 14.9584 -1.82293 1.59028e-015 6.36111e-015 -2.38542e-015 
-23.9869 92.0721 10.5262 1.85403 1.65614 7.55067 -3.76529 -3.90203 1.59397e-015 1.98817e-016 0 1.03393 -0 0 3.18055e-015 3.47873e-016 7.95139e-016 3.18055e-015 -2.20695e-032 3.97569e-016 3.18055e-015 -2.20695e-032 3.97569e-016 3.18055e-015 25.2438 -10.0833 -27.8625 1.07094e-015 -39.9197 4.14705e-015 -1.59028e-014 9.73764e-031 90 -2.20695e-032 3.97569e-016 3.18055e-015 -16.2881 10.6191 19.5225 2.51903e-016 -18.2216 3.34847e-015 -1.59028e-015 -9.73764e-032 -90 -10.6274 0.094967 41.6695 -7.09996e-016 6.49545 3.2011e-015 2.60967e-007 13.2387 -34.1992 -1.59028e-015 1.59028e-015 3.18055e-015 -16.1026 -15.8928 -16.4957 -4.86167e-016 58.8255 6.14426e-015 3.28464e-008 12.8385 -2.65524 -4.77083e-015 -6.36111e-015 -5.56597e-015 
-23.4763 92.032 13.054 1.1447 2.22261 10.0455 -3.21497 -4.18316 3.18905e-015 -1.00257e-016 -3.97569e-016 -0.124635 -9.93923e-017 0 -0 -1.49089e-016 0 1.59028e-015 -4.96962e-016 -3.97569e-016 -0 -4.96962e-016 -3.97569e-016 -0 26.8007 -14.6784 -25.4986 1.06563e-014 -44.5272 6.69198e-015 1.27222e-014 -7.79011e-031 90 -4.96962e-016 -3.97569e-016 -0 -15.5416 13.7106 19.4815 -2.38542e-015 -15.0981 -0 4.37326e-015 2.67785e-031 -90 -9.88797 0.912673 39.3711 5.05748e-017 7.34917 -1.28276e-014 8.55441e-008 11.7698 -34.1462 8.74653e-015 -1.59028e-015 -0 -15.7089 -19.7107 -16.3961 1.87895e-015 53.7344 -1.34421e-015 -6.86967e-010 10.5622 -3.12425 7.95139e-016 3.18055e-015 2.38542e-015 
-22.9782 91.966 15.6174 0.473047 2.6878 12.4174 -2.69563 -4.36803 1.59491e-015 -3.4794e-016 0 -1.1267 -1.49089e-016 0 4.77083e-015 9.93923e-017 -3.97569e-016 6.36111e-015 -9.93923e-017 -3.97569e-016 4.77083e-015 -9.93923e-017 -3.97569e-016 4.77083e-015 28.457 -18.6461 -23.49 -2.54837e-015 -48.5557 7.20787e-015 -4.77083e-015 2.92129e-031 90 -9.93923e-017 -3.97569e-016 4.77083e-015 -14.7132 16.2924 19.0834 3.18055e-015 -12.1955 -0 -3.37934e-015 -2.06925e-031 -90 -9.12205 1.8242 36.4031 -3.63628e-015 8.15417 3.21304e-015 -3.07078e-007 10.293 -33.4407 -5.29669e-031 -9.54166e-015 -3.18055e-015 -15.1776 -22.7231 -16.3616 -5.90693e-017 47.0511 1.16701e-015 6.82644e-010 8.77652 -3.51256 1.98785e-015 3.18055e-015 1.59028e-015 
-22.5275 91.8457 18.1838 -0.279445 3.24974 14.4856 -2.12795 -4.71577 3.19136e-015 -8.01712e-017 5.96354e-016 -1.85105 9.93923e-017 0 -4.77083e-015 -1.98785e-016 3.97569e-016 -3.18055e-015 1.49089e-016 3.97569e-016 -3.18055e-015 1.49089e-016 3.97569e-016 -3.18055e-015 30.0074 -21.8828 -21.5826 -4.62645e-015 -51.9259 -1.54726e-014 7.95139e-015 -4.86882e-031 90 1.49089e-016 3.97569e-016 -3.18055e-015 -14.0348 18.5236 18.3885 4.34486e-016 -10.2981 -6.46526e-015 3.97569e-016 2.43441e-032 -90 -8.2457 2.68779 34.6901 -1.02433e-015 8.6131 -6.43367e-015 1.88738e-007 9.10898 -33.8506 -7.95139e-016 0 -3.18055e-015 -14.3681 -25.2561 -16.7404 -3.2337e-016 39.1238 5.12474e-016 1.1396e-008 8.61987 -3.42616 1.59028e-015 -3.18055e-015 -1.19271e-015 
-22.0732 91.6936 20.8584 -0.852506 3.55701 16.8119 -1.81283 -4.79043 3.1917e-015 -4.47775e-016 0 -2.73294 -1.49089e-016 1.98785e-016 -4.77083e-015 -1.98785e-016 0 -4.77083e-015 1.98785e-016 1.98785e-016 -4.77083e-015 1.98785e-016 1.98785e-016 -4.77083e-015 31.5565 -24.3422 -19.7971 4.89611e-015 -54.869 -2.76355e-015 4.77083e-015 -2.92129e-031 90 1.98785e-016 1.98785e-016 -4.77083e-015 -13.3531 20.0312 17.5589 -1.59028e-015 -8.66941 -0 -6.36111e-015 -3.89506e-031 -90 -7.2606 3.87456 33.6935 7.95139e-016 9.11406 -0 -8.11564e-008 8.29061 -35.252 -7.95139e-016 0 6.36111e-015 -13.5177 -26.6195 -18.4809 6.21103e-016 30.2422 -3.45151e-016 -6.70608e-010 9.21756 -1.81244 1.19271e-015 -3.18055e-015 -0 
-21.5636 91.4173 23.6368 -1.10038 4.34796 18.7598 -1.93048 -5.42761 3.19488e-015 1.65346e-016 -5.96354e-016 -3.23977 -4.96962e-017 1.98785e-016 -3.18055e-015 2.98177e-016 5.96354e-016 -3.18055e-015 -9.93923e-017 3.97569e-016 -6.36111e-015 -9.93923e-017 3.97569e-016 -6.36111e-015 32.7949 -25.8373 -18.6427 4.83799e-015 -57.0402 2.92303e-015 2.70347e-014 -1.6554e-030 90 -9.93923e-017 3.97569e-016 -6.36111e-015 -13.1506 21.5204 17.4635 2.07051e-015 -8.5862 3.21661e-015 7.95139e-015 4.86882e-031 -90 -6.74096 4.80882 33.1336 2.10035e-015 9.37457 -1.28944e-014 1.1595e-007 7.36221 -36.6145 -2.38542e-015 3.18055e-015 -0 -12.5763 -27.5779 -22.1419 -6.33139e-016 20.3095 1.05981e-016 1.82491e-008 10.7527 3.01903 -9.93923e-017 0 -3.97569e-016 
-21.0543 91.0332 26.5636 -1.27079 5.42229 21.3766 -2.49684 -6.47309 3.20096e-015 -8.47447e-017 1.98785e-016 -4.2945 -9.93923e-017 -3.97569e-016 6.36111e-015 -1.98785e-016 0 6.36111e-015 3.31043e-032 -1.98785e-016 9.54166e-015 3.31043e-032 -1.98785e-016 9.54166e-015 33.6222 -26.6142 -17.9259 -1.59866e-014 -58.3483 -1.06068e-014 2.38542e-015 -1.46065e-031 90 3.31043e-032 -1.98785e-016 9.54166e-015 -12.8519 22.429 16.8492 -2.68205e-015 -8.90778 3.21938e-015 -1.59028e-015 -9.73764e-032 -90 -6.17324 5.53236 32.0322 -2.1329e-015 9.68182 3.22651e-015 8.19166e-008 6.91426 -38.2698 2.38542e-015 3.18055e-015 -3.18055e-015 -11.5825 -28.1974 -28.031 0 10.7115 -0 3.48636e-008 12.7638 12.2277 4.96962e-017 7.95139e-016 -0 
-20.5504 90.5608 29.6181 -1.12283 6.20977 23.827 -3.39224 -7.06069 -0 1.82251e-016 -1.98785e-016 -4.96929 -0 0 3.18055e-015 2.98177e-016 1.98785e-016 -0 4.96962e-016 1.98785e-016 3.18055e-015 4.96962e-016 1.98785e-016 3.18055e-015 34.2638 -26.781 -18.003 3.01869e-015 -59.0768 -9.28379e-015 -2.06736e-014 1.26589e-030 90 4.96962e-016 1.98785e-016 3.18055e-015 -12.702 22.7126 15.875 4.23925e-015 -9.48845 -3.22467e-015 9.54166e-015 5.84258e-031 -90 -5.66862 6.7252 31.4455 -3.73762e-015 9.93446 3.22897e-015 -4.77896e-008 6.64897 -40.2763 -7.95139e-016 -9.54166e-015 -0 -10.4174 -28.6442 -30.9315 1.98785e-016 3.19933 -0 8.66052e-008 14.2278 23.6543 -3.97569e-016 -2.38542e-015 -3.18055e-015 
-20.0256 90.0878 32.8046 -0.957588 6.6458 26.8405 -4.3656 -7.27619 3.20638e-015 -1.99856e-016 0 -5.93618 -1.10348e-032 -1.98785e-016 -3.18055e-015 -1.98785e-016 -1.98785e-016 3.18055e-015 -3.97569e-016 0 -0 -3.97569e-016 0 -0 34.3187 -26.3976 -18.8147 3.09361e-015 -58.8404 -2.49718e-015 3.27995e-015 -2.00839e-031 90 -3.97569e-016 0 -0 -12.4334 22.3696 14.451 1.13153e-015 -10.0864 6.46097e-015 1.59028e-015 9.73764e-032 -90 -4.73271 8.08435 30.389 -1.01389e-014 10.6351 3.23614e-015 1.13466e-007 6.63709 -42.3927 -3.18055e-015 3.18055e-015 -0 -9.87473 -28.4449 -30.6031 9.6841e-016 -0.766927 -4.97006e-017 -1.75614e-007 14.2587 32.5718 1.59028e-015 -1.59028e-015 -6.36111e-015 
